# Alias OBJ Model File
# Exported from SketchUp, (c) 2000-2012 Trimble Navigation Limited
# File units = inches

mtllib churchfloor.mtl

g Mesh1 Group1 Model

usemtl Color_M03
v -445.621 10 114.321
vt 240 53.0407
vn 0 1 -0
v -685.621 10 114.321
vt 0 53.0407
v -685.621 10 167.361
vt 0 0
v -445.621 10 167.361
vt 240 0
f 1/1/1 2/2/1 3/3/1 4/4/1 

v -445.621 0 114.321
vt -240 0
vn 0 0 -1
v -685.621 0 114.321
vt 0 10
vt -240 10
f 5/5/2 6/3/2 2/6/2 1/7/2 

vn 0 -1 -0
vt -240 53.0407
v -445.621 0 167.361
v -685.621 0 167.361
f 6/2/3 5/8/3 7/5/3 8/3/3 

vn 1 0 -0
vt 53.0407 0
vt 53.0407 10
f 7/3/4 5/9/4 1/10/4 4/6/4 

vn 0 0 1
vt 240 10
f 8/3/5 7/4/5 4/11/5 3/6/5 

vt -53.0407 0
vn -1 0 -0
vt -53.0407 10
f 6/12/6 8/3/6 3/6/6 2/13/6 

g Mesh2 Group2 Model

v -469.621 20 114.321
vt 192 39.8328
v -661.621 20 114.321
vt 0 39.8328
v -661.621 20 154.154
v -469.621 20 154.154
vt 192 0
f 9/14/1 10/15/1 11/3/1 12/16/1 

v -469.621 10 114.321
vt -192 0
v -661.621 10 114.321
vt -192 10
f 13/17/2 14/3/2 10/6/2 9/18/2 

vt -192 39.8328
v -469.621 10 154.154
v -661.621 10 154.154
f 14/15/3 13/19/3 15/17/3 16/3/3 

vt 39.8328 0
vt 39.8328 10
f 15/3/4 13/20/4 9/21/4 12/6/4 

vt 192 10
f 16/3/5 15/16/5 12/22/5 11/6/5 

vt -39.8328 0
vt -39.8328 10
f 14/23/6 16/3/6 11/6/6 10/24/6 

g Mesh3 Model

usemtl M_0063_GreenYellow
v -781.621 20 -1262.12
vt -781.621 1262.12
v -911.483 20 -1088.12
vt -911.483 1088.12
v -911.483 20 -63.4918
vt -911.483 63.4918
v -613.621 20 -63.4918
vt -613.621 63.4918
v -517.451 20 -63.4918
vt -517.451 63.4918
v -219.758 20 -63.4918
vt -219.758 63.4918
v -219.758 20 -1088.12
vt -219.758 1088.12
v -349.621 20 -1262.12
vt -349.621 1262.12
v -349.621 20 -1266.62
vt -349.621 1266.62
v -781.621 20 -1266.62
vt -781.621 1266.62
f 17/25/1 18/26/1 19/27/1 20/28/1 21/29/1 22/30/1 23/31/1 24/32/1 25/33/1 26/34/1 

g Mesh4 Model

v -613.621 20 -51.4918
vt -613.621 51.4918
vn -6.1614e-14 1 -3.55119e-12
v -613.621 20 111.821
vt -613.621 -111.821
v -599.948 20 111.821
vt -599.948 -111.821
v -599.948 20 114.321
vt -599.948 -114.321
v -533.972 20 114.321
vt -533.972 -114.321
v -533.972 20 111.821
vt -533.972 -111.821
v -517.451 20 111.821
vt -517.451 -111.821
v -517.451 20 -51.4918
vt -517.451 51.4918
f 27/35/7 28/36/7 29/37/7 30/38/7 31/39/7 32/40/7 33/41/7 34/42/7 

